<svg xmlns="http://www.w3.org/2000/svg" width="1280" height="640" viewBox="0 0 1280 640" fill="none">
  <defs>
    <linearGradient id="bg" x1="0" y1="0" x2="1280" y2="640" gradientUnits="userSpaceOnUse">
      <stop stop-color="#020617"/>
      <stop offset="0.55" stop-color="#0f172a"/>
      <stop offset="1" stop-color="#111827"/>
    </linearGradient>
    <radialGradient id="glow" cx="0" cy="0" r="1" gradientUnits="userSpaceOnUse" gradientTransform="translate(910 220) rotate(136) scale(520 360)">
      <stop stop-color="#22d3ee" stop-opacity="0.26"/>
      <stop offset="1" stop-color="#22d3ee" stop-opacity="0"/>
    </radialGradient>
    <mask id="icon-mask">
      <rect width="128" height="128" rx="28" fill="#fff"/>
    </mask>
  </defs>

  <rect width="1280" height="640" fill="url(#bg)"/>
  <rect width="1280" height="640" fill="url(#glow)"/>
  <path d="M0 520C170 470 275 555 430 505C630 440 735 330 920 360C1085 387 1150 475 1280 420V640H0V520Z" fill="#0e7490" opacity="0.12"/>

  <g transform="translate(88 86)">
    <rect width="112" height="112" rx="25" fill="#0f172a"/>
    <path d="M75.25 0H94.5L36.75 112H17.5L75.25 0Z" fill="#22d3ee" mask="url(#icon-mask)" transform="scale(0.875)"/>
    <rect x="1" y="1" width="110" height="110" rx="24" stroke="#22d3ee" stroke-opacity="0.28" stroke-width="2"/>
  </g>

  <text x="232" y="132" fill="#e5e7eb" font-family="Inter, Arial, sans-serif" font-size="34" font-weight="700">TestShift AI</text>
  <text x="88" y="278" fill="#f8fafc" font-family="Inter, Arial, sans-serif" font-size="78" font-weight="800">Agentic QA</text>
  <text x="88" y="364" fill="#f8fafc" font-family="Inter, Arial, sans-serif" font-size="78" font-weight="800">Skill Patterns</text>
  <text x="92" y="436" fill="#94a3b8" font-family="Inter, Arial, sans-serif" font-size="30" font-weight="500">RCA triage, governed automation, and deterministic Quality Gates.</text>

  <g transform="translate(88 500)">
    <rect width="186" height="46" rx="23" fill="#082f49" stroke="#22d3ee" stroke-opacity="0.36"/>
    <text x="28" y="31" fill="#67e8f9" font-family="Inter, Arial, sans-serif" font-size="20" font-weight="700">Bug Scout</text>
  </g>
  <g transform="translate(294 500)">
    <rect width="178" height="46" rx="23" fill="#14532d" stroke="#22c55e" stroke-opacity="0.36"/>
    <text x="27" y="31" fill="#86efac" font-family="Inter, Arial, sans-serif" font-size="20" font-weight="700">Human Gate</text>
  </g>
  <g transform="translate(492 500)">
    <rect width="204" height="46" rx="23" fill="#312e81" stroke="#8b5cf6" stroke-opacity="0.36"/>
    <text x="27" y="31" fill="#c4b5fd" font-family="Inter, Arial, sans-serif" font-size="20" font-weight="700">Evidence First</text>
  </g>

  <text x="88" y="594" fill="#64748b" font-family="Inter, Arial, sans-serif" font-size="22" font-weight="600">github.com/nirtal85/TestShift-AI  •  test-shift.com</text>
</svg>
